<?xml version="1.0" encoding="UTF-8"?>
<svg version="1.1" xmlns="http://www.w3.org/2000/svg" width="1024" height="1024">
<path d="M0 0 C337.92 0 675.84 0 1024 0 C1024 337.92 1024 675.84 1024 1024 C686.08 1024 348.16 1024 0 1024 C0 686.08 0 348.16 0 0 Z " fill="#000202" transform="translate(0,0)"/>
<path d="M0 0 C20.81785562 18.17280815 33.34571205 39.2238031 38.60253906 66.39892578 C38.77760986 67.19161865 38.95268066 67.98431152 39.13305664 68.80102539 C41.67690511 82.87751607 40.02094408 98.59407481 36.60253906 112.39892578 C36.3444043 113.49358154 36.3444043 113.49358154 36.08105469 114.61035156 C28.89711908 144.19682321 12.61622062 172.38211854 -4.39746094 197.39892578 C-5.02950439 198.33043457 -5.02950439 198.33043457 -5.67431641 199.28076172 C-11.30285871 207.51368616 -17.40786938 215.20762714 -23.95019531 222.72949219 C-25.45824327 224.46903873 -26.95271631 226.21949643 -28.44433594 227.97314453 C-33.67825621 234.12181905 -38.97017006 240.20437048 -44.39746094 246.18408203 C-46.19349623 248.1730508 -47.95699397 250.18455773 -49.70996094 252.21142578 C-52.92711034 255.88709413 -56.17927087 259.52994759 -59.45996094 263.14892578 C-59.95471924 263.70427002 -60.44947754 264.25961426 -60.95922852 264.83178711 C-64.15891209 268.33685887 -67.34693082 270.91925504 -71.39746094 273.39892578 C-74.08927369 270.73658378 -76.77508241 268.06825911 -79.45996094 265.39892578 C-80.58821289 264.28324219 -80.58821289 264.28324219 -81.73925781 263.14501953 C-86.50739442 258.39752421 -91.03996336 253.52499729 -95.39746094 248.39892578 C-95.86901611 247.84897949 -96.34057129 247.2990332 -96.82641602 246.73242188 C-98.14724012 245.18830247 -99.46134743 243.63879593 -100.77246094 242.08642578 C-101.24304932 241.52938965 -101.7136377 240.97235352 -102.19848633 240.3984375 C-106.65519132 235.11122979 -111.04471786 229.77206601 -115.39746094 224.39892578 C-115.86829102 223.82384277 -116.33912109 223.24875977 -116.82421875 222.65625 C-123.03497255 215.06954463 -128.96174442 207.46178412 -134.24267578 199.18554688 C-135.58986749 197.10124478 -136.97151503 195.04168459 -138.35449219 192.98095703 C-163.39885339 155.44649918 -186.91635533 110.4128936 -179.14355469 63.88330078 C-174.52069149 42.29380352 -164.52070783 24.42110693 -149.39746094 8.39892578 C-148.78386719 7.72087891 -148.17027344 7.04283203 -147.53808594 6.34423828 C-109.76760439 -33.84742798 -41.45956061 -34.88275083 0 0 Z " fill="#29B1B9" transform="translate(195.3974609375,392.60107421875)"/>
<path d="M0 0 C9.82100735 7.73646093 14.26005241 19.50387488 15.91015625 31.59375 C16.04398767 34.51431805 16.03679753 37.42983639 16.02368164 40.35302734 C16.02382767 41.21221771 16.02397369 42.07140808 16.02412415 42.95663452 C16.02343054 45.78101169 16.01566405 48.60532193 16.0078125 51.4296875 C16.00594636 53.39409346 16.00452338 55.3584999 16.00352478 57.32290649 C15.99971504 62.48168228 15.98989796 67.64042971 15.9788208 72.79919434 C15.96857346 78.06794857 15.96402005 83.33670741 15.95898438 88.60546875 C15.94827428 98.93491027 15.93069001 109.26432333 15.91015625 119.59375 C5.35015625 119.59375 -5.20984375 119.59375 -16.08984375 119.59375 C-16.58484375 112.16875 -16.58484375 112.16875 -17.08984375 104.59375 C-18.51296875 106.388125 -18.51296875 106.388125 -19.96484375 108.21875 C-27.09649032 116.30987513 -36.49032525 120.86711333 -47.22216797 121.77392578 C-62.287223 122.65379816 -75.27685842 120.73447969 -87.08984375 110.59375 C-93.74533409 104.36950094 -97.70977649 96.18260784 -98.328125 87.08984375 C-98.63571115 75.8615638 -97.20604709 66.40347869 -89.83203125 57.43359375 C-81.77593577 48.92592342 -70.64850273 43.09143303 -58.78019714 42.47349548 C-57.99188004 42.47571609 -57.20356293 42.47793671 -56.39135742 42.48022461 C-55.04052315 42.48033791 -55.04052315 42.48033791 -53.66239929 42.48045349 C-52.22462883 42.48819542 -52.22462883 42.48819542 -50.7578125 42.49609375 C-49.27019157 42.49821617 -49.27019157 42.49821617 -47.7525177 42.50038147 C-44.59409532 42.50596582 -41.4357446 42.51851548 -38.27734375 42.53125 C-36.13216248 42.53626702 -33.9869801 42.54082958 -31.84179688 42.54492188 C-26.59112151 42.55593012 -21.34048775 42.5726527 -16.08984375 42.59375 C-16.51559881 40.36231035 -16.95594762 38.13365225 -17.40234375 35.90625 C-17.64597656 34.66488281 -17.88960937 33.42351562 -18.140625 32.14453125 C-19.23865158 28.03709849 -20.43403391 24.74975687 -23.9921875 22.265625 C-24.66378906 21.96140625 -25.33539062 21.6571875 -26.02734375 21.34375 C-26.69636719 21.02921875 -27.36539063 20.7146875 -28.0546875 20.390625 C-43.76932814 14.23748356 -62.75268794 20.6007862 -77.921875 25.60546875 C-81.08984375 26.59375 -81.08984375 26.59375 -83.08984375 26.59375 C-83.08984375 18.01375 -83.08984375 9.43375 -83.08984375 0.59375 C-57.86232378 -12.94296803 -24.80037819 -16.68810495 0 0 Z " fill="#FCFCFC" transform="translate(987.08984375,474.40625)"/>
<path d="M0 0 C1.03382813 -0.01224609 2.06765625 -0.02449219 3.1328125 -0.03710938 C17.90278117 -0.06501234 32.45470886 3.49951791 43.25 14.1875 C55.30957925 28.91799277 55.54882634 45.1488124 55.4453125 63.29296875 C55.44157595 65.22780714 55.43873201 67.16264744 55.43673706 69.0974884 C55.42915116 74.15594839 55.40954673 79.21429102 55.3873291 84.27270508 C55.36676126 89.44806328 55.35771209 94.62344071 55.34765625 99.79882812 C55.32629545 109.92844492 55.29115518 120.05794427 55.25 130.1875 C44.69 130.1875 34.13 130.1875 23.25 130.1875 C22.755 122.7625 22.755 122.7625 22.25 115.1875 C20.6103125 117.229375 20.6103125 117.229375 18.9375 119.3125 C11.69023859 127.44326147 2.67609628 131.38649962 -8.05883789 132.40698242 C-22.11821617 133.1174733 -34.60361256 131.5521229 -45.75 122.1875 C-54.03409801 114.22313911 -57.70447353 106.88266181 -58.09375 95.3125 C-58.26583626 83.26646146 -55.55196062 74.0459253 -46.984375 65.15625 C-40.78646667 59.69515595 -33.71787939 56.24229636 -25.75 54.1875 C-25.08564941 54.01331543 -24.42129883 53.83913086 -23.73681641 53.65966797 C-19.43828675 52.98013909 -15.20030438 53.06532936 -10.85546875 53.08984375 C-9.90811356 53.0912587 -8.96075836 53.09267365 -7.98469543 53.09413147 C-4.96893105 53.09971389 -1.95324182 53.11226318 1.0625 53.125 C3.11132705 53.13001727 5.16015527 53.13457978 7.20898438 53.13867188 C12.22268506 53.14967757 17.2363298 53.16693012 22.25 53.1875 C22.11355349 51.42404654 21.97032016 49.66111732 21.82421875 47.8984375 C21.74518311 46.91665527 21.66614746 45.93487305 21.5847168 44.92333984 C20.96146899 39.8291641 19.09859409 37.05582883 15.5625 33.4375 C7.98062093 27.72814312 -2.69476428 28.2171639 -11.75 29.1875 C-22.57636058 31.0615272 -33.17070123 34.3022367 -43.75 37.1875 C-43.75 28.6075 -43.75 20.0275 -43.75 11.1875 C-37.47891432 8.05195716 -32.07127611 5.37252004 -25.5 3.4375 C-24.83226562 3.22996094 -24.16453125 3.02242188 -23.4765625 2.80859375 C-15.53784295 0.39584565 -8.23956644 0.00506116 0 0 Z " fill="#FCFCFC" transform="translate(483.75,463.8125)"/>
<path d="M0 0 C0 9.57 0 19.14 0 29 C-9.72067039 25.75977654 -9.72067039 25.75977654 -13.6875 24 C-29.08286966 17.86074216 -48.26231561 15.99260434 -64 22 C-77.41989395 27.77638913 -87.57191841 34.63737608 -93.515625 48.546875 C-99.2084753 64.05498443 -100.41858949 80.40872634 -93.78125 95.83203125 C-87.15124 108.99996779 -77.60689884 117.49941153 -63.75 122.3125 C-43.18027443 128.90037157 -23.21363485 124.31048477 -4.23046875 115.48828125 C-1 114 -1 114 2 113 C2.24835783 117.30461426 2.42912304 121.60538567 2.54931641 125.91503906 C2.59942955 127.37834298 2.66755153 128.84115031 2.75439453 130.30273438 C3.45251022 142.35960289 3.45251022 142.35960289 0.03710938 146.21679688 C-2.58831528 147.84881761 -5.09188109 148.9603901 -8 150 C-8.75394043 150.31791504 -9.50788086 150.63583008 -10.28466797 150.96337891 C-12.41838693 151.82671367 -14.55556987 152.55663466 -16.75 153.25 C-17.52730469 153.49959473 -18.30460937 153.74918945 -19.10546875 154.00634766 C-42.9347229 161.37717812 -68.05153631 159.29875503 -90.24267578 147.96191406 C-94.86519262 145.43166728 -98.94993249 142.35091122 -103 139 C-103.83917969 138.33484375 -104.67835938 137.6696875 -105.54296875 136.984375 C-121.03843466 124.0114268 -130.59202514 105.00269458 -133 85 C-135.02350001 57.9867091 -129.45961246 33.84000169 -111.6640625 12.80078125 C-81.45843448 -18.95498897 -36.95856018 -18.47928009 0 0 Z " fill="#FDFDFD" transform="translate(406,439)"/>
<path d="M0 0 C11.55 0 23.1 0 35 0 C37.43132249 6.07830623 39.78369642 12.05415077 41.84082031 18.24780273 C42.09499725 19.00522263 42.34917419 19.76264252 42.61105347 20.54301453 C43.43646434 23.00553143 44.2575237 25.46947034 45.078125 27.93359375 C45.65520386 29.6609374 46.23241558 31.38823667 46.80975342 33.11549377 C48.01192403 36.71458523 49.21179902 40.31443206 50.41015625 43.91479492 C51.94736212 48.53224381 53.49142828 53.1473663 55.03731155 57.76191616 C56.2277102 61.31841154 57.41397003 64.87627683 58.59902191 68.43455696 C59.16697678 70.13790789 59.73635161 71.84078603 60.30716705 73.54318047 C61.10132739 75.91336786 61.88977309 78.28538105 62.67675781 80.65795898 C62.91359283 81.36082031 63.15042786 82.06368164 63.3944397 82.7878418 C64.34039869 85.65687206 65 87.95609773 65 91 C65.99 91 66.98 91 68 91 C68.41511841 89.26716011 68.41511841 89.26716011 68.83862305 87.49931335 C69.89863918 83.26596498 71.19248885 79.14606973 72.58203125 75.01098633 C72.83270355 74.25707108 73.08337585 73.50315582 73.34164429 72.72639465 C74.1623438 70.26062289 74.98732196 67.7963075 75.8125 65.33203125 C76.38799594 63.60673714 76.96326904 61.88136868 77.53833008 60.15592957 C78.74016667 56.5519786 79.94400616 52.94870528 81.14941406 49.34594727 C82.69251985 44.73365321 84.23165225 40.12004565 85.76942444 35.50597095 C86.95552824 31.94793171 88.14319603 28.39041617 89.33139038 24.83307457 C89.8994823 23.13197437 90.46721441 21.43075396 91.03457642 19.72941017 C91.82753426 17.35271006 92.62246613 14.97667945 93.41796875 12.60083008 C93.65075531 11.90201721 93.88354187 11.20320435 94.12338257 10.48321533 C95.31477951 6.93226633 96.60702788 3.48243031 98 0 C109.22 0 120.44 0 132 0 C128.62519042 11.24936525 128.62519042 11.24936525 126.55834961 16.70751953 C126.09553589 17.93485809 125.63272217 19.16219666 125.15588379 20.42672729 C124.65475225 21.74544079 124.15357076 23.06413529 123.65234375 24.3828125 C123.12196092 25.78594339 122.59189886 27.18919557 122.06213379 28.59255981 C120.64923098 32.33304666 119.23234782 36.07201346 117.81464767 39.8106842 C116.34621057 43.68509132 114.88125067 47.5608122 113.41625977 51.43652344 C113.12423896 52.20906212 112.83221815 52.9816008 112.53134823 53.77754974 C111.94107891 55.33911188 111.35082158 56.90067855 110.76057625 58.46224976 C109.87452883 60.8059338 108.98801567 63.14944127 108.10142517 65.49291992 C104.48548272 75.05310906 100.88850065 84.62010698 97.3125 94.1953125 C96.88860489 95.32973785 96.46470978 96.46416321 96.02796936 97.63296509 C94.44490592 101.87065375 92.86226362 106.10848923 91.28463745 110.34820557 C90.23239829 113.17570051 89.17704388 116.00201434 88.12109375 118.828125 C87.66204651 120.06672775 87.66204651 120.06672775 87.19372559 121.33035278 C85.11356561 126.88643439 85.11356561 126.88643439 84 128 C81.3337397 128.08855161 78.69352886 128.11524673 76.02734375 128.09765625 C75.22970108 128.0962413 74.43205841 128.09482635 73.61024475 128.09336853 C71.05262565 128.08775316 68.49509282 128.07519812 65.9375 128.0625 C64.20768355 128.05748698 62.47786574 128.05292373 60.74804688 128.04882812 C56.49866447 128.03777875 52.24934688 128.02050386 48 128 C47.68744514 127.17056381 47.68744514 127.17056381 47.36857605 126.32437134 C37.93834405 101.30084861 28.50101534 76.27999293 19.00991821 51.27947998 C18.22596888 49.21424291 17.44240495 47.14885948 16.65927124 45.08331299 C15.55142459 42.16184251 14.44221962 39.24089387 13.33203125 36.3203125 C12.98051498 35.39537994 12.62899872 34.47044739 12.26683044 33.51748657 C10.35635242 28.50646037 8.4184181 23.50739449 6.45068359 18.51855469 C5.82355721 16.92755447 5.82355721 16.92755447 5.1837616 15.30441284 C4.37620786 13.26043064 3.56555097 11.21767104 2.75141907 9.17630005 C2.21063972 7.80875076 2.21063972 7.80875076 1.65893555 6.41357422 C1.17749336 5.20470047 1.17749336 5.20470047 0.68632507 3.97140503 C0 2 0 2 0 0 Z " fill="#FDFDFD" transform="translate(664,466)"/>
<path d="M0 0 C11.22 0 22.44 0 34 0 C34 59.07 34 118.14 34 179 C22.78 179 11.56 179 0 179 C0 119.93 0 60.86 0 0 Z " fill="#FEFEFE" transform="translate(563,415)"/>
<path d="M0 0 C0.763125 -0.00386719 1.52625 -0.00773437 2.3125 -0.01171875 C5.58851362 -0.00597136 8.24637676 0.08212559 11.375 1.125 C11.375 11.355 11.375 21.585 11.375 32.125 C8.405 31.795 5.435 31.465 2.375 31.125 C-12.98876113 30.11968883 -12.98876113 30.11968883 -26.453125 36.66796875 C-33.24571179 43.87272707 -34.74961269 52.99498412 -34.83032227 62.57739258 C-34.84022186 63.3096405 -34.85012146 64.04188843 -34.86032104 64.79632568 C-34.89177625 67.20402857 -34.91662989 69.61175116 -34.94140625 72.01953125 C-34.9619896 73.69390867 -34.98298643 75.36828105 -35.00437927 77.04264832 C-35.05945738 81.44021516 -35.10892929 85.83782779 -35.15722656 90.23547363 C-35.20754599 94.72668512 -35.26317745 99.21783047 -35.31835938 103.70898438 C-35.42576643 112.51426841 -35.52675869 121.31960892 -35.625 130.125 C-46.185 130.125 -56.745 130.125 -67.625 130.125 C-67.625 87.885 -67.625 45.645 -67.625 2.125 C-57.395 2.125 -47.165 2.125 -36.625 2.125 C-36.13 10.045 -36.13 10.045 -35.625 18.125 C-34.820625 16.92875 -34.01625 15.7325 -33.1875 14.5 C-25.05499769 3.66305706 -13.01632275 -0.06663646 0 0 Z " fill="#FDFDFD" transform="translate(875.625,463.875)"/>
<path d="M0 0 C3.375 0.9375 3.375 0.9375 5.375 3.9375 C5.54655827 6.62247921 5.60739103 9.2037807 5.5703125 11.88671875 C5.56829834 12.57173462 5.56628418 13.25675049 5.56420898 13.96252441 C5.55375994 16.51675124 5.52583727 19.07088248 5.5 21.625 C5.45875 27.338125 5.4175 33.05125 5.375 38.9375 C17.255 38.9375 29.135 38.9375 41.375 38.9375 C41.375 35.6375 41.375 32.3375 41.375 28.9375 C43.76963436 23.87192731 46.29419382 22.07405223 51.375 19.9375 C54.40991211 19.55654907 54.40991211 19.55654907 57.65234375 19.54931641 C59.48454468 19.53513168 59.48454468 19.53513168 61.35375977 19.5206604 C62.66014404 19.52673309 63.96652832 19.53280579 65.3125 19.5390625 C66.6796077 19.53703895 68.04671434 19.53412518 69.41381836 19.53036499 C72.27175222 19.52595479 75.12940378 19.53233016 77.98730469 19.54638672 C81.63899713 19.56347828 85.29002796 19.55363002 88.94169617 19.53566933 C91.76254199 19.52479589 94.58323259 19.52829402 97.40408325 19.5360527 C99.40147331 19.53900917 101.39886956 19.52994513 103.39624023 19.5206604 C104.61770752 19.53011688 105.8391748 19.53957336 107.09765625 19.54931641 C108.70265991 19.55289658 108.70265991 19.55289658 110.34008789 19.55654907 C115.32874108 20.18273922 118.56064636 22.18807938 122.21948242 25.55517578 C125.21883602 29.46013476 125.01257178 33.29877174 124.86328125 38.0546875 C124.85266914 39.3404216 124.85266914 39.3404216 124.84184265 40.65213013 C124.81399213 43.37316471 124.75127456 46.09209407 124.6875 48.8125 C124.6624049 50.66403265 124.63959385 52.51559776 124.61914062 54.3671875 C124.56419651 58.89142846 124.47799162 63.41410809 124.375 67.9375 C120.085 67.9375 115.795 67.9375 111.375 67.9375 C111.375 63.6475 111.375 59.3575 111.375 54.9375 C76.395 54.9375 41.415 54.9375 5.375 54.9375 C5.375 59.2275 5.375 63.5175 5.375 67.9375 C1.085 67.9375 -3.205 67.9375 -7.625 67.9375 C-7.71538931 59.66201144 -7.78876597 51.38690698 -7.83224869 43.11105728 C-7.85311884 39.26818748 -7.88142506 35.42567307 -7.92675781 31.58300781 C-7.97023745 27.87418885 -7.99414142 24.16571158 -8.00450897 20.45665741 C-8.01189667 19.04203665 -8.02632343 17.62743448 -8.04792023 16.21295929 C-8.07697615 14.23102577 -8.07863408 12.248748 -8.07910156 10.26660156 C-8.09242523 8.57449554 -8.09242523 8.57449554 -8.10601807 6.84820557 C-7.26305145 1.74730021 -5.10240697 -0.08797253 0 0 Z " fill="#FEFEFE" transform="translate(66.625,477.0625)"/>
<path d="M0 0 C11.22 0 22.44 0 34 0 C34 42.24 34 84.48 34 128 C22.78 128 11.56 128 0 128 C0 85.76 0 43.52 0 0 Z " fill="#FDFDFD" transform="translate(619,466)"/>
<path d="M0 0 C4.34818431 3.17486473 7.86490192 6.6243263 11 11 C11.43828125 10.65066406 11.8765625 10.30132812 12.328125 9.94140625 C18.27072006 5.67771508 23.73755088 4.68056498 31 5 C37.8180335 6.13468003 44.35682517 9.01085918 50 13 C50.99 14.485 50.99 14.485 52 16 C40.78 16 29.56 16 18 16 C18 16.66 18 17.32 18 18 C19.093125 18.04125 20.18625 18.0825 21.3125 18.125 C30.26085107 19.26734269 38.54099827 24.96428387 44 32 C47.40622193 37.17704068 48.56144298 41.86020176 49 48 C48.30777344 47.47212891 48.30777344 47.47212891 47.6015625 46.93359375 C46.20060234 45.8731832 44.79372929 44.8205639 43.3828125 43.7734375 C41.84438099 42.62844094 40.31731241 41.46794099 38.8046875 40.2890625 C29.5865161 33.38324596 19.03901555 29.0724089 8 26 C7.97497235 31.03132784 7.95698766 36.06261813 7.94506836 41.09399414 C7.94009069 42.79972974 7.93330614 44.5054612 7.92456055 46.21118164 C7.87463532 56.21091047 8.0660891 66.03583251 9 76 C5.04 76 1.08 76 -3 76 C-4.17880771 70.10596147 -4.2595133 64.51500751 -4.29516602 58.51953125 C-4.31221145 56.53361756 -4.3560716 54.54799227 -4.40039062 52.5625 C-4.46156781 43.15062539 -3.25568799 34.51137597 1 26 C-15.18492718 24.62904146 -29.57304553 31.7890929 -43 40 C-40.7653318 30.76337145 -36.04710233 24.12439668 -27.8828125 19.0703125 C-20.65480113 15.37678102 -15.34693361 13.83801027 -7.25 13.9375 C-6.55261719 13.94201172 -5.85523438 13.94652344 -5.13671875 13.95117188 C-3.42444197 13.9628998 -1.71220967 13.98083347 0 14 C-10.83121607 8.45929611 -20.84529233 3.72505639 -33 2 C-33 1.34 -33 0.68 -33 0 C-22.9752914 -4.22092994 -9.83873097 -5.50660872 0 0 Z " fill="#F8FCFC" transform="translate(139,409)"/>
<path d="M0 0 C0.49718723 9.52021468 0.03197558 18.6756679 -6.0625 26.4375 C-12.38559723 32.82618953 -19.31163932 34.36587922 -28.125 34.5 C-34.3755179 34.43321166 -38.84696895 33.63743368 -44 30 C-47.5839339 26.30045533 -47.90706673 23.15237249 -48.3125 18.125 C-48.22248401 13.71421638 -46.97338616 11.34505943 -44 8 C-31.73978783 -1.79189512 -14.84282314 -0.18476543 0 0 Z " fill="#020405" transform="translate(971,536)"/>
<path d="M0 0 C0.38654793 10.28646994 -0.51657974 18.68307606 -7 27 C-12.96442922 33.13010781 -20.30986042 34.19936413 -28.5625 34.4375 C-34.87678493 34.30450102 -38.80896407 33.59379411 -44 30 C-47.65397571 26.11028392 -48.30229891 22.35448956 -48.21484375 17.05859375 C-47.75622476 12.66418996 -45.85486068 9.83111455 -42.75 6.8125 C-37.09344176 3.08431389 -31.76079442 1.49400113 -25.0625 0.8125 C-23.97400757 0.69189209 -23.97400757 0.69189209 -22.86352539 0.56884766 C-15.24304547 -0.20265911 -7.64909492 -0.18530782 0 0 Z " fill="#020505" transform="translate(507,536)"/>
<path d="M0 0 C4.64368932 2.66727917 8.00600225 5.937233 9.57421875 11.12890625 C10.4510512 16.7155816 10.32717001 21.56944639 7.51171875 26.56640625 C4.02960968 31.27692602 0.51988981 33.66055688 -5.2265625 34.57421875 C-11.88055351 34.96314326 -16.36488473 33.94830353 -21.64453125 29.81640625 C-26.01012293 25.68058255 -26.61880979 21.9530793 -26.86328125 16.12890625 C-26.72337754 10.99062464 -26.01231217 8.00623698 -22.42578125 4.12890625 C-16.17328777 -1.51358786 -8.05302122 -2.89182565 0 0 Z " fill="#FCFCFC" transform="translate(644.42578125,414.87109375)"/>
<path d="M0 0 C3.25 1.375 3.25 1.375 5 4 C5.62303249 7.44096841 5.79360934 10.58474327 5 14 C3.40625 16.28515625 3.40625 16.28515625 1 18 C-2.34765625 18.49609375 -2.34765625 18.49609375 -6.0625 18.4375 C-7.90521484 18.43556641 -7.90521484 18.43556641 -9.78515625 18.43359375 C-13 18 -13 18 -14.87109375 16.66015625 C-17.40023638 12.94082886 -17.45059508 9.3557524 -17 5 C-13.09292858 -1.55829845 -6.8445975 -0.97374799 0 0 Z " fill="#FBFDFD" transform="translate(95,491)"/>
<path d="M0 0 C34.65 0 69.3 0 105 0 C105 4.29 105 8.58 105 13 C109.29 13 113.58 13 118 13 C118 13.33 118 13.66 118 14 C115.68756208 14.02685412 113.3750373 14.04632841 111.0625 14.0625 C109.77472656 14.07410156 108.48695313 14.08570313 107.16015625 14.09765625 C104 14 104 14 103 13 C103 9.37 103 5.74 103 2 C69.34 2 35.68 2 1 2 C1 5.63 1 9.26 1 13 C0.67 13 0.34 13 0 13 C0 8.71 0 4.42 0 0 Z " fill="#11A9AF" transform="translate(73,532)"/>
<path d="M0 0 C1.06347656 0.00322266 2.12695312 0.00644531 3.22265625 0.00976562 C4.86427734 0.02233398 4.86427734 0.02233398 6.5390625 0.03515625 C7.65667969 0.03966797 8.77429688 0.04417969 9.92578125 0.04882812 C12.67193054 0.06056381 15.41796836 0.07698262 18.1640625 0.09765625 C18.1640625 0.42765625 18.1640625 0.75765625 18.1640625 1.09765625 C10.2440625 1.59265625 10.2440625 1.59265625 2.1640625 2.09765625 C3.24880769 6.43663702 3.46310695 6.67634372 6.9140625 8.97265625 C10.71537652 11.65271937 13.35215668 14.40702986 16.1640625 18.09765625 C15.8340625 18.75765625 15.5040625 19.41765625 15.1640625 20.09765625 C14.71417969 19.51757812 14.26429688 18.9375 13.80078125 18.33984375 C6.85914363 9.90971871 -1.10073377 5.12316639 -11.8359375 3.09765625 C-11.8359375 2.43765625 -11.8359375 1.77765625 -11.8359375 1.09765625 C-7.83502346 0.3478092 -4.06844233 -0.02187335 0 0 Z " fill="#1CA9B1" transform="translate(168.8359375,423.90234375)"/>
<path d="M0 0 C3.7602985 0.58107632 6.53035032 1.65199496 9.8125 3.5625 C10.60269531 4.01753906 11.39289063 4.47257812 12.20703125 4.94140625 C12.79871094 5.29074219 13.39039063 5.64007813 14 6 C11.65147472 7.17426264 10.26225935 7.11508173 7.6484375 7.09765625 C6.79765625 7.09443359 5.946875 7.09121094 5.0703125 7.08789062 C4.18085938 7.07951172 3.29140625 7.07113281 2.375 7.0625 C1.4778125 7.05798828 0.580625 7.05347656 -0.34375 7.04882812 C-2.56256648 7.03702591 -4.78125018 7.02056155 -7 7 C-4.09907498 5.06604999 -3.10325263 4.69868059 0.1875 4.375 C1.445625 4.25125 2.70375 4.1275 4 4 C2.68 2.68 1.36 1.36 0 0 Z " fill="#12A5AC" transform="translate(126,417)"/>
<path d="M0 0 C0.33 0 0.66 0 1 0 C1 7.92 1 15.84 1 24 C0.01 23.67 -0.98 23.34 -2 23 C-2.125 16.375 -2.125 16.375 -1 13 C-0.77548542 10.77425665 -0.59217122 8.54418481 -0.4375 6.3125 C-0.35371094 5.13300781 -0.26992187 3.95351563 -0.18359375 2.73828125 C-0.12300781 1.83464844 -0.06242188 0.93101562 0 0 Z " fill="#25A0A6" transform="translate(234,464)"/>
<path d="M0 0 C0.66 0.33 1.32 0.66 2 1 C0.75023244 4.65316671 0.32901247 5.78065836 -3 8 C-1.125 1.125 -1.125 1.125 0 0 Z " fill="#0A0B0B" transform="translate(763,555)"/>
<path d="M0 0 C2.97 0.495 2.97 0.495 6 1 C5.360625 1.20625 4.72125 1.4125 4.0625 1.625 C1.65074923 2.89538209 1.65074923 2.89538209 1.25 6.125 C1.1675 7.07375 1.085 8.0225 1 9 C0.67 9 0.34 9 0 9 C0 6.03 0 3.06 0 0 Z " fill="#0DA1AA" transform="translate(147,435)"/>
</svg>
